<?xml version="1.0" encoding="UTF-8"?>
<svg version="1.1" viewBox="0 0 2048 779" width="1314" height="500" xmlns="http://www.w3.org/2000/svg">
<path transform="translate(1844,208)" d="m0 0h23l18 3 24 8 17 9 10 8h1v-19l1-2h83l10 1v329l-1 1h-92l-1-1v-20l-8 6-10 7-16 7-17 5-11 2-11 1h-19l-21-3-21-6-18-8-18-11-10-8-13-12-11-12-10-14-12-21-8-21-5-19-3-19-1-29 3-23 5-20 8-21 9-17 10-15 9-11 11-12 11-9 14-10 18-10 15-6 17-5zm14 93-15 3-12 5-10 6-10 9-8 9-6 10-6 16-2 11v20l3 16 6 15 8 12 12 12 13 8 12 5 18 3h10l18-3 16-7 12-9 9-10 6-10 5-11 4-17v-25l-3-14-5-13-7-12-11-12-10-7-13-6-17-4z" fill="#F1C14F"/>
<path transform="translate(1195,208)" d="m0 0h27l22 3 21 6 15 6 21 11 14 10 11 9 14 14 13 17 9 15 7 14 6 16 5 20 3 27v14l-2 18-6 25-8 20-8 15-11 16-13 15-9 9-11 9-10 7-17 10-15 7-18 6-24 5-11 1h-23l-18-2-21-5-16-6-16-8-15-9-10-8-10-9-5-4-7-8-9-11-11-17-8-16-7-19-5-22-2-17v-27l3-20 6-22 9-21 10-17 9-12 9-11 11-11 14-11 16-10 15-8 22-8 24-5zm5 93-18 4-16 8-11 9-8 9-8 13-5 14-2 9-1 16 2 17 6 18 8 13 11 12 14 9 11 5 12 3 9 1h10l18-3 13-5 12-7 10-9 7-8 8-15 4-12 2-12v-17l-3-16-5-13-7-12-9-10-8-7-17-9-14-4-8-1z" fill="#F1C14F"/>
<path transform="translate(144,337)" d="m0 0h25l23 2 29 5 26 7 51 16 36 10 30 7 33 6 17 2h35l17-3 18-6 15-8 14-11 8-8 7-9h1l3 31v41l-3 25-4 19-9 27-13 27-11 18-9 11-10 10-14 8-10 3-7 1h-15l-19-3-25-7-28-10-26-11-33-15-32-16-23-11-32-15-27-11-32-10-25-5-17-2h-39l-32 3-8 1h-9l-6-4-3-4-5-21-1-6v-20l4-11 6-9 10-8 14-8 19-9 33-11 24-5z" fill="#F1C14F"/>
<path transform="translate(854,208)" d="m0 0h26l15 2 19 5 13 5 19 10 12 9 10 9 11 11 9 12 10 16 9 19 7 21 5 25 2 24v170h-92l-1-1-1-177-4-20-7-16-9-12-10-8-12-6-10-3-7-1h-18l-16 3-16 7-11 7-9 9-7 11-5 11-4 15-1 10-1 171h-92l-1-1v-329l1-1h92v22l14-11 16-8 19-6z" fill="#F1C14F"/>
<path transform="translate(1367,215)" d="m0 0h102l2 1 11 23 66 132v2h2l2-6 60-135 7-16 1-1h90l-2 6-17 35-14 29-33 68-34 70-14 29-34 70-12 25-3 6h-2l-18-34-12-23-12-22-16-31-12-22-16-31-12-22-17-33-12-22-16-31-12-22-16-31z" fill="#F1C14F"/>
<path transform="translate(372,146)" d="m0 0 9 3 23 12 19 12 14 11 14 12 17 17 9 11 12 16 12 19 7 14v7l-5 5-10 3-18 2h-24l-26-3-25-6-22-7-28-10-27-11-28-10-25-7-23-5-21-3-11-1h-46l-30 4-25 6-30 10-30 14-7 3h-8l-5-2 2-5 9-10 9-11 13-15 12-14 13-15 7-8 14-11 14-8 16-6 15-3 9-1h22l24 3 77 15 13 2h27l11-3 9-4 9-6 7-7z" fill="#F1C14F"/>
<path transform="translate(158,593)" d="m0 0h21l45 4 73 9 72 10 25 4v2l-16 10-19 9-19 6-25 5-17 2-17 1h-14l-29-2-25-4-27-7-22-8-23-12-12-9-9-8v-2l28-8z" fill="#F1C14F"/>
</svg>
